<?xml version="1.0" encoding="UTF-8" standalone="no"?><!DOCTYPE svg PUBLIC "-//W3C//DTD SVG 1.1//EN" "http://www.w3.org/Graphics/SVG/1.1/DTD/svg11.dtd"><svg width="100%" height="100%" viewBox="0 0 215 57" version="1.1" xmlns="http://www.w3.org/2000/svg" xmlns:xlink="http://www.w3.org/1999/xlink" xml:space="preserve" xmlns:serif="http://www.serif.com/" style="fill-rule:evenodd;clip-rule:evenodd;stroke-linejoin:round;stroke-miterlimit:2;"><g><path d="M7.6,11.719l-0,28.8l20.4,0l-0,6.4l-28,0l-0,-35.2l7.6,0Z" style="fill:#7affff;fill-rule:nonzero;"/><path d="M40.3,47.319c-3.567,0 -6.4,-0.95 -8.5,-2.85c-2.067,-1.9 -3.1,-4.683 -3.1,-8.35l0,-15.6l7.2,0l0,13c0,1.967 0.217,3.5 0.65,4.6c0.433,1.1 1.1,1.884 2,2.35c0.9,0.434 2.083,0.65 3.55,0.65c1.567,0 3.033,-0.433 4.4,-1.3c1.4,-0.866 2.517,-2.083 3.35,-3.65c0.833,-1.566 1.25,-3.333 1.25,-5.3l0,-10.35l7.2,0l0,26.4l-7.2,0l0,-1.65c0,-0.733 0.067,-1.35 0.2,-1.85c0.133,-0.533 0.333,-1.116 0.6,-1.75c0.033,-0.066 0.083,-0.183 0.15,-0.35c0.1,-0.2 0.15,-0.366 0.15,-0.5c0,-0.266 -0.133,-0.416 -0.4,-0.45l-0.15,0c-0.233,0 -0.467,0.2 -0.7,0.6c-1.067,1.7 -2.483,3.184 -4.25,4.45c-1.767,1.267 -3.9,1.9 -6.4,1.9Z" style="fill:#7affff;fill-rule:nonzero;"/><path d="M59,33.719c0,-2.6 0.65,-4.933 1.95,-7c1.3,-2.066 3.133,-3.683 5.5,-4.85c2.4,-1.166 5.2,-1.75 8.4,-1.75c2.833,0 5.317,0.484 7.45,1.45c2.133,0.967 3.8,2.25 5,3.85c1.2,1.567 1.9,3.267 2.1,5.1l-7.1,0c-0.267,-1.2 -1.05,-2.2 -2.35,-3c-1.267,-0.8 -2.967,-1.2 -5.1,-1.2c-2.667,0 -4.783,0.684 -6.35,2.05c-1.533,1.367 -2.3,3.15 -2.3,5.35c-0,2.2 0.767,3.984 2.3,5.35c1.567,1.367 3.683,2.05 6.35,2.05c2.133,0 3.833,-0.4 5.1,-1.2c1.3,-0.8 2.083,-1.8 2.35,-3l7.1,0c-0.2,1.834 -0.9,3.55 -2.1,5.15c-1.2,1.6 -2.867,2.884 -5,3.85c-2.133,0.934 -4.617,1.4 -7.45,1.4c-3.133,0 -5.9,-0.583 -8.3,-1.75c-2.4,-1.166 -4.267,-2.783 -5.6,-4.85c-1.3,-2.066 -1.95,-4.4 -1.95,-7Z" style="fill:#7affff;fill-rule:nonzero;"/><path d="M90.1,10.919l7.2,0l-0,6.4l-7.2,0l-0,-6.4Zm-0,9.6l7.2,0l-0,26.4l-7.2,0l-0,-26.4Z" style="fill:#7affff;fill-rule:nonzero;"/><path d="M129.6,46.919l-7.2,0l0,-1.15c0,-0.866 0.233,-1.766 0.7,-2.7c0.167,-0.266 0.25,-0.516 0.25,-0.75c0,-0.2 -0.117,-0.35 -0.35,-0.45l-0.15,-0.05c-0.2,0 -0.417,0.184 -0.65,0.55c-1,1.5 -2.4,2.7 -4.2,3.6c-1.8,0.9 -3.867,1.35 -6.2,1.35c-2.667,0 -5.017,-0.6 -7.05,-1.8c-2.033,-1.2 -3.6,-2.833 -4.7,-4.9c-1.1,-2.066 -1.65,-4.366 -1.65,-6.9c0,-2.533 0.55,-4.833 1.65,-6.9c1.1,-2.066 2.667,-3.7 4.7,-4.9c2.033,-1.2 4.383,-1.8 7.05,-1.8c2.333,0 4.367,0.45 6.1,1.35c1.733,0.867 3.167,2.05 4.3,3.55c0.167,0.234 0.317,0.417 0.45,0.55c0.167,0.134 0.333,0.15 0.5,0.05c0.167,-0.1 0.25,-0.233 0.25,-0.4c0,-0.133 -0.05,-0.3 -0.15,-0.5c-0.067,-0.2 -0.117,-0.35 -0.15,-0.45c-0.233,-0.566 -0.417,-1.05 -0.55,-1.45c-0.1,-0.4 -0.15,-0.833 -0.15,-1.3l0,-10.6l7.2,0l0,36Zm-15.85,-5.8c1.7,0 3.2,-0.333 4.5,-1c1.3,-0.666 2.317,-1.566 3.05,-2.7c0.733,-1.133 1.1,-2.366 1.1,-3.7c0,-1.3 -0.4,-2.516 -1.2,-3.65c-0.8,-1.133 -1.867,-2.033 -3.2,-2.7c-1.333,-0.7 -2.75,-1.05 -4.25,-1.05c-2.633,0 -4.65,0.7 -6.05,2.1c-1.4,1.4 -2.1,3.167 -2.1,5.3c0,2.134 0.7,3.9 2.1,5.3c1.4,1.4 3.417,2.1 6.05,2.1Z" style="fill:#7affff;fill-rule:nonzero;"/><path d="M132.3,10.919l7.2,0l-0,6.4l-7.2,0l-0,-6.4Zm-0,9.6l7.2,0l-0,26.4l-7.2,0l-0,-26.4Z" style="fill:#7affff;fill-rule:nonzero;"/><path d="M153,26.519l-0,11.25c-0,1.067 0.033,1.8 0.1,2.2c0.1,0.4 0.317,0.667 0.65,0.8c0.367,0.1 1.033,0.15 2,0.15l6.05,0l-0,6l-8.2,0c-1.833,0 -3.317,-0.233 -4.45,-0.7c-1.133,-0.5 -1.983,-1.333 -2.55,-2.5c-0.533,-1.166 -0.8,-2.8 -0.8,-4.9l-0,-12.3l-6.4,0l-0,-6l6.4,0l-0,-7.2l7.2,0l-0,7.2l8.8,0l-0,6l-8.8,0Z" style="fill:#7affff;fill-rule:nonzero;"/><path d="M176.35,37.969c0.3,0.8 0.45,1.8 0.45,3c0,0.567 0.2,0.85 0.6,0.85c0.4,0 0.6,-0.283 0.6,-0.85c0,-1.133 0.167,-2.133 0.5,-3l6.8,-17.45l8,0l-13.2,29.45c-1.067,2.367 -2.267,4.05 -3.6,5.05c-1.3,1 -3.067,1.5 -5.3,1.5l-7.1,0l0,-6l3.3,0c1.433,0 2.467,-0.033 3.1,-0.1c0.633,-0.066 1.133,-0.216 1.5,-0.45c0.367,-0.233 0.683,-0.633 0.95,-1.2l0.65,-1.5l-12.3,-26.75l8,0l7.05,17.45Z" style="fill:#7affff;fill-rule:nonzero;"/><path d="M203.275,20.071l-1.642,4.929l-1.641,-4.929c-0.933,-2.797 -3.132,-4.997 -5.93,-5.929l-4.929,-1.642l4.929,-1.642c2.798,-0.932 4.997,-3.132 5.93,-5.929l1.641,-4.929l1.642,4.929c0.932,2.797 3.132,4.997 5.929,5.929l4.929,1.642l-4.929,1.642c-2.797,0.932 -4.997,3.132 -5.929,5.929Z" style="fill:#7affff;fill-rule:nonzero;"/></g></svg>